<svg width="69" height="52" viewBox="0 0 69 52" fill="none" xmlns="http://www.w3.org/2000/svg"><path d="M27.445 0H4.9l-.65.66L.648 4.322 0 4.982V32.892h27.443l.65-.66 3.603-3.663.648-.661V0h-4.9zM68.353 4.322L64.747.658 64.1 0H36.656v27.908l.648.66 3.606 3.665.647.659H69V4.982l-.647-.66zm-.74 1.464V31.48H42.348l-4.305-4.377V1.41h25.265l4.305 4.376zM6.427 43.124h6.013v8c-.974.325-1.893.551-2.752.682-.86.13-1.741.194-2.638.194-2.288 0-4.036-.685-5.24-2.052C.602 48.578 0 46.613 0 44.052c0-2.492.7-4.432 2.1-5.825 1.4-1.395 3.34-2.09 5.82-2.09 1.555 0 3.055.316 4.5.95l-1.068 2.617A7.505 7.505 0 007.9 38.86c-1.39 0-2.503.474-3.339 1.424-.836.95-1.253 2.228-1.253 3.831 0 1.675.336 2.956 1.01 3.837.674.883 1.655 1.324 2.94 1.324.669 0 1.35-.069 2.041-.211v-3.22H6.427v-2.72zM22.04 51.79h-6.338V40.215h6.338v1.195h-5.016v3.728h4.712v1.188h-4.712v4.259h5.016v1.203zM35.374 41.171c0 1.661-.509 2.93-1.528 3.81-1.021.88-2.468 1.32-4.35 1.32h-1.38v5.488h-3.21V36.36h4.84c1.838 0 3.234.402 4.192 1.207.959.807 1.436 2.007 1.436 3.605zm-7.257 2.448h1.058c.988 0 1.727-.199 2.22-.595.49-.397.734-.977.734-1.737 0-.765-.205-1.334-.615-1.7-.412-.364-1.057-.547-1.935-.547h-1.462v4.579zM39.213 46.976v4.813H37.89V40.216h3.118c1.395 0 2.423.272 3.09.816.667.543 1 1.36 1 2.453 0 1.53-.762 2.565-2.285 3.104l3.086 5.2h-1.563l-2.752-4.813h-2.372zm0-1.156h1.81c.934 0 1.62-.189 2.054-.566.435-.376.652-.943.652-1.696 0-.765-.221-1.317-.663-1.656-.445-.337-1.156-.507-2.134-.507h-1.72v4.425zM57.6 45.985c0 1.853-.46 3.31-1.38 4.371-.919 1.06-2.198 1.59-3.836 1.59-1.675 0-2.967-.52-3.876-1.562-.911-1.043-1.364-2.514-1.364-4.413 0-1.885.455-3.345 1.367-4.381.912-1.037 2.21-1.555 3.888-1.555 1.633 0 2.907.526 3.825 1.582.917 1.056 1.377 2.511 1.377 4.368zm-9.059 0c0 1.57.329 2.757.986 3.567.655.811 1.608 1.215 2.857 1.215 1.26 0 2.21-.403 2.853-1.21.642-.81.964-1.999.964-3.573 0-1.555-.32-2.736-.961-3.54-.64-.806-1.588-1.209-2.842-1.209-1.259 0-2.216.406-2.872 1.216-.656.811-.985 1.99-.985 3.534zM65.134 45.726h3.864v5.628c-.602.195-1.213.343-1.835.443-.621.1-1.342.15-2.161.15-1.722 0-3.06-.521-4.02-1.563-.959-1.042-1.438-2.503-1.438-4.382 0-1.203.238-2.258.712-3.162a4.852 4.852 0 012.047-2.074c.891-.477 1.938-.716 3.133-.716 1.214 0 2.344.227 3.39.68l-.512 1.188c-1.026-.444-2.014-.665-2.962-.665-1.383 0-2.466.419-3.242 1.259-.78.84-1.167 2.002-1.167 3.49 0 1.561.373 2.746 1.124 3.555.747.808 1.848 1.21 3.298 1.21.79 0 1.557-.092 2.31-.277v-3.56h-2.543v-1.204h.002z" fill="#323130"/></svg>